<mxfile host="app.diagrams.net" agent="Mozilla/5.0 (Windows NT 10.0; Win64; x64) AppleWebKit/537.36 (KHTML, like Gecko) Chrome/135.0.0.0 Safari/537.36" version="26.2.10">
  <diagram name="Page-1" id="7e0a89b8-554c-2b80-1dc8-d5c74ca68de4">
    <mxGraphModel dx="1736" dy="1014" grid="0" gridSize="1" guides="1" tooltips="1" connect="1" arrows="1" fold="1" page="1" pageScale="1" pageWidth="1100" pageHeight="850" background="none" math="0" shadow="0">
      <root>
        <mxCell id="0" />
        <mxCell id="1" parent="0" />
        <mxCell id="3yI3qpGJyScPMvLFyF8W-10" value="" style="whiteSpace=wrap;html=1;strokeWidth=2;fontSize=14;" vertex="1" parent="1">
          <mxGeometry x="375" y="184" width="312" height="504" as="geometry" />
        </mxCell>
        <mxCell id="3yI3qpGJyScPMvLFyF8W-3" style="edgeStyle=orthogonalEdgeStyle;rounded=0;orthogonalLoop=1;jettySize=auto;html=1;exitX=0;exitY=0.21666666666666667;exitDx=0;exitDy=3;exitPerimeter=0;endArrow=box;endFill=0;strokeWidth=2;fontSize=14;" edge="1" parent="1" source="3yI3qpGJyScPMvLFyF8W-1">
          <mxGeometry relative="1" as="geometry">
            <mxPoint x="371" y="254.2" as="targetPoint" />
          </mxGeometry>
        </mxCell>
        <mxCell id="3yI3qpGJyScPMvLFyF8W-4" style="edgeStyle=orthogonalEdgeStyle;rounded=0;orthogonalLoop=1;jettySize=auto;html=1;exitX=0;exitY=0.65;exitDx=0;exitDy=3;exitPerimeter=0;endArrow=box;endFill=0;strokeWidth=2;fontSize=14;" edge="1" parent="1" source="3yI3qpGJyScPMvLFyF8W-1">
          <mxGeometry relative="1" as="geometry">
            <mxPoint x="371" y="306.20000000000005" as="targetPoint" />
          </mxGeometry>
        </mxCell>
        <mxCell id="3yI3qpGJyScPMvLFyF8W-5" style="edgeStyle=orthogonalEdgeStyle;rounded=0;orthogonalLoop=1;jettySize=auto;html=1;exitX=0.375;exitY=1;exitDx=10;exitDy=0;exitPerimeter=0;endArrow=box;endFill=0;strokeWidth=2;fontSize=14;" edge="1" parent="1" source="3yI3qpGJyScPMvLFyF8W-1">
          <mxGeometry relative="1" as="geometry">
            <mxPoint x="371" y="385" as="targetPoint" />
            <Array as="points">
              <mxPoint x="521" y="385" />
            </Array>
          </mxGeometry>
        </mxCell>
        <mxCell id="3yI3qpGJyScPMvLFyF8W-1" value="Mux" style="shadow=0;dashed=0;align=center;html=1;strokeWidth=2;shape=mxgraph.electrical.abstract.mux2;whiteSpace=wrap;fontSize=14;" vertex="1" parent="1">
          <mxGeometry x="481" y="225" width="80" height="120" as="geometry" />
        </mxCell>
        <mxCell id="3yI3qpGJyScPMvLFyF8W-6" style="edgeStyle=orthogonalEdgeStyle;rounded=0;orthogonalLoop=1;jettySize=auto;html=1;exitX=0;exitY=0.65;exitDx=0;exitDy=3;exitPerimeter=0;endArrow=box;endFill=0;strokeWidth=2;fontSize=14;" edge="1" parent="1" source="3yI3qpGJyScPMvLFyF8W-2">
          <mxGeometry relative="1" as="geometry">
            <mxPoint x="371" y="546.2" as="targetPoint" />
          </mxGeometry>
        </mxCell>
        <mxCell id="3yI3qpGJyScPMvLFyF8W-7" style="edgeStyle=orthogonalEdgeStyle;rounded=0;orthogonalLoop=1;jettySize=auto;html=1;exitX=0.375;exitY=1;exitDx=10;exitDy=0;exitPerimeter=0;endArrow=box;endFill=0;strokeWidth=2;fontSize=14;" edge="1" parent="1" source="3yI3qpGJyScPMvLFyF8W-2">
          <mxGeometry relative="1" as="geometry">
            <mxPoint x="371" y="625" as="targetPoint" />
            <Array as="points">
              <mxPoint x="521" y="625" />
            </Array>
          </mxGeometry>
        </mxCell>
        <mxCell id="3yI3qpGJyScPMvLFyF8W-9" style="edgeStyle=orthogonalEdgeStyle;rounded=0;orthogonalLoop=1;jettySize=auto;html=1;exitX=1;exitY=0.5;exitDx=0;exitDy=-5;exitPerimeter=0;endArrow=box;endFill=0;strokeWidth=2;fontSize=14;" edge="1" parent="1" source="3yI3qpGJyScPMvLFyF8W-2">
          <mxGeometry relative="1" as="geometry">
            <mxPoint x="691" y="520.2" as="targetPoint" />
          </mxGeometry>
        </mxCell>
        <mxCell id="3yI3qpGJyScPMvLFyF8W-2" value="Mux" style="shadow=0;dashed=0;align=center;html=1;strokeWidth=2;shape=mxgraph.electrical.abstract.mux2;whiteSpace=wrap;fontSize=14;" vertex="1" parent="1">
          <mxGeometry x="481" y="465" width="80" height="120" as="geometry" />
        </mxCell>
        <mxCell id="3yI3qpGJyScPMvLFyF8W-8" style="edgeStyle=orthogonalEdgeStyle;rounded=0;orthogonalLoop=1;jettySize=auto;html=1;exitX=1;exitY=0.5;exitDx=0;exitDy=-5;exitPerimeter=0;entryX=0;entryY=0.21666666666666667;entryDx=0;entryDy=3;entryPerimeter=0;endArrow=none;startFill=0;strokeWidth=2;fontSize=14;" edge="1" parent="1" source="3yI3qpGJyScPMvLFyF8W-1" target="3yI3qpGJyScPMvLFyF8W-2">
          <mxGeometry relative="1" as="geometry" />
        </mxCell>
        <mxCell id="3yI3qpGJyScPMvLFyF8W-12" value="top" style="text;html=1;align=center;verticalAlign=middle;resizable=0;points=[];autosize=1;strokeColor=none;fillColor=none;strokeWidth=2;fontSize=14;" vertex="1" parent="1">
          <mxGeometry x="375" y="184" width="37" height="29" as="geometry" />
        </mxCell>
        <mxCell id="3yI3qpGJyScPMvLFyF8W-13" value="c" style="text;html=1;align=center;verticalAlign=middle;resizable=0;points=[];autosize=1;strokeColor=none;fillColor=none;strokeWidth=2;fontSize=14;" vertex="1" parent="1">
          <mxGeometry x="346" y="240" width="25" height="29" as="geometry" />
        </mxCell>
        <mxCell id="3yI3qpGJyScPMvLFyF8W-14" value="b" style="text;html=1;align=center;verticalAlign=middle;resizable=0;points=[];autosize=1;strokeColor=none;fillColor=none;strokeWidth=2;fontSize=14;" vertex="1" parent="1">
          <mxGeometry x="347" y="292" width="26" height="29" as="geometry" />
        </mxCell>
        <mxCell id="3yI3qpGJyScPMvLFyF8W-15" value="s [0]" style="text;html=1;align=center;verticalAlign=middle;resizable=0;points=[];autosize=1;strokeColor=none;fillColor=none;strokeWidth=2;fontSize=14;" vertex="1" parent="1">
          <mxGeometry x="332" y="370" width="44" height="29" as="geometry" />
        </mxCell>
        <mxCell id="3yI3qpGJyScPMvLFyF8W-16" value="a" style="text;html=1;align=center;verticalAlign=middle;resizable=0;points=[];autosize=1;strokeColor=none;fillColor=none;strokeWidth=2;fontSize=14;" vertex="1" parent="1">
          <mxGeometry x="347" y="532" width="26" height="29" as="geometry" />
        </mxCell>
        <mxCell id="3yI3qpGJyScPMvLFyF8W-17" value="s [1]" style="text;html=1;align=center;verticalAlign=middle;resizable=0;points=[];autosize=1;strokeColor=none;fillColor=none;strokeWidth=2;fontSize=14;" vertex="1" parent="1">
          <mxGeometry x="331" y="611" width="44" height="29" as="geometry" />
        </mxCell>
        <mxCell id="3yI3qpGJyScPMvLFyF8W-18" value="out 1" style="text;html=1;align=center;verticalAlign=middle;resizable=0;points=[];autosize=1;strokeColor=none;fillColor=none;strokeWidth=2;fontSize=14;" vertex="1" parent="1">
          <mxGeometry x="686" y="505" width="49" height="29" as="geometry" />
        </mxCell>
        <mxCell id="3yI3qpGJyScPMvLFyF8W-19" value="Fig 10.9 Synthesized Circuit that retains the priority modeled by the case statement using multiplexers" style="text;html=1;align=center;verticalAlign=middle;resizable=0;points=[];autosize=1;strokeColor=none;fillColor=none;fontStyle=1;fontSize=20;" vertex="1" parent="1">
          <mxGeometry x="108" y="117" width="920" height="36" as="geometry" />
        </mxCell>
      </root>
    </mxGraphModel>
  </diagram>
</mxfile>
